. 
  
http://www.torrentday.com :  Your Key To The Scene.


Now TvTeam with [No-RAR] Releases.



(((((((((((((= Enjoy No RAR releases =))))))))))))))))))))



...................................NFO:....................................

.      *********** ****    ****      ***      ******** *********** ****    *** **********
           *+*     +*+*+* *+*+*+   *+* *+*   *+*    *+*    *+*     *+*+*   *+* *+*        
           +*+     +*+ +*+*+ +*+  +*+   +*+  +*+           +*+     *+*+*+  +*+ +*+        
           +$+     +$+  +*+  +$+ +$++*++$++* *$*           +$+     +$+ +*+ +$+ +$++*++$  
           +$+     +$+       +$+ +$+     +$+ +$+   +$+$    +$+     +$+  +$+$+$ +$+        
           $+$     $+$       $+$ $+$     $+$ $+$    $+$    $+$     $+$   $+$+$ $+$        
       $$$$$$$$$$$ $$$       $$$ $$$     $$$  $$$$$$$$ $$$$$$$$$$$ $$$    $$$$ $$$$$$$$$$     
                                                



           Another Fine Release Brought to you from - IMAGiNE                   
           

********************************************************************************************************************                                
                              Prince of Persia: The Sands of Time TS XViD IMAGiNE
********************************************************************************************************************
6.8/10                             
Video Codec.......:XVID                                     Release Date......:28/05/10
Audio Codec.......:MP3                                      Theatre Date......:28/05/10
Audio Bitrate.....:128                                      Runtime...........:1h 44mn
Subtitles.........:NIL                                      Language..........:ENGLISH
Resolution........:640 x 272                                IMDb URL..........:http://www.imdb.com/title/tt0473075/


[color=yellow]DETAILS:[/color]

Video
Format                           : MPEG-4 Visual
Format profile                   : Streaming Video@L1
Format settings, BVOP            : Yes
Format settings, QPel            : No
Format settings, GMC             : No warppoints
Format settings, Matrix          : Default
Muxing mode                      : Packed bitstream
Codec ID                         : XVID
Codec ID/Hint                    : XviD
Duration                         : 1h 43mn
Bit rate                         : 1 759 Kbps
Width                            : 640 pixels
Height                           : 272 pixels
Display aspect ratio             : 2.35
Frame rate                       : 25.000 fps
Resolution                       : 24 bits
Colorimetry                      : 4:2:0
Scan type                        : Progressive
Bits/(Pixel*Frame)               : 0.404
Stream size                      : 1.28 GiB (93%)
Writing library                  : XviD 50

Audio
Format                           : MPEG Audio
Format version                   : Version 1
Format profile                   : Layer 3
Codec ID                         : 55
Codec ID/Hint                    : MP3
Duration                         : 1h 43mn
Bit rate mode                    : Constant
Bit rate                         : 128 Kbps
Channel(s)                       : 2 channels
Sampling rate                    : 44.1 KHz
Resolution                       : 16 bits
Video delay                      : 9ms
Stream size                      : 94.9 MiB (7%)
Alignment                        : Split accross interleaves
Interleave, duration             : 40 ms (1.00 video frame)
Interleave, preload duration     : 498 ms




[color=yellow]NOTES:[/color]

IMAGiNE bringing you another release..... Prince of Persia: The Sands of Time
 
Well here we have a very nice Telesync for you to enjoy this weekend. On the OPENING DAY in the USA HeHe
First off many thanks to Relizlab for the great video and TA for the great audio, Which together
make this a great release. We fixed the AR first, then we also balanced out the rgb colours, altered the contrast (made it darker), lowered the chroma, and cleaned the video noise. Then on to the syncing of the audio which is very nice line audio. This was not an easy one, but we got it done... :P 

Enjoy :)


[color=yellow]SCREENS:[/color]



[color=yellow]GREETS:[/color]

FLAWL3SS,ViSiON,FUSiON,Rx,SecretMyth,BirdFlu,ELEKTRI4KA
And to all the other p2p grps past and present 

Special thanks to Python-Lair for the server :)
And special thanks to supreme-speeds.com for the ripbox :)
Also a big thanks to The Scene Nation for all the help  :)

[COLOR=RED]Looking for these,syncers,cammers,silver supplier.....Have anything to offer????......
Contact us imaginegroup@hushmail.com[/COLOR]